<svg xmlns="http://www.w3.org/2000/svg" xmlns:xlink="http://www.w3.org/1999/xlink" width="31" zoomAndPan="magnify" viewBox="0 0 23.25 15.75" height="21" preserveAspectRatio="xMidYMid meet" version="1.0"><defs><clipPath id="0bd7e04ec3"><path d="M 0 0.125 L 22.523438 0.125 L 22.523438 4 L 0 4 Z M 0 0.125 " clip-rule="nonzero"/></clipPath><clipPath id="9f954e7c2c"><path d="M 0 6 L 22.523438 6 L 22.523438 10 L 0 10 Z M 0 6 " clip-rule="nonzero"/></clipPath><clipPath id="d90cc55bc6"><path d="M 0 12 L 22.523438 12 L 22.523438 15.382812 L 0 15.382812 Z M 0 12 " clip-rule="nonzero"/></clipPath></defs><g clip-path="url(#0bd7e04ec3)"><path stroke-linecap="butt" transform="matrix(0.736148, 0, 0, 0.726562, 0.380313, 0.171476)" fill="none" stroke-linejoin="miter" d="M -0.00191105 2.000549 L 29.618076 2.000549 " stroke="#9b4a08" stroke-width="4" stroke-opacity="1" stroke-miterlimit="4"/></g><g clip-path="url(#9f954e7c2c)"><path stroke-linecap="butt" transform="matrix(0.736148, 0, 0, 0.726562, 0.380313, 6.285781)" fill="none" stroke-linejoin="miter" d="M -0.00191105 1.99914 L 29.618076 1.99914 " stroke="#9b4a08" stroke-width="4" stroke-opacity="1" stroke-miterlimit="4"/></g><g clip-path="url(#d90cc55bc6)"><path stroke-linecap="butt" transform="matrix(0.736148, 0, 0, 0.726562, 0.380313, 12.31534)" fill="none" stroke-linejoin="miter" d="M -0.00191105 2.001468 L 29.618076 2.001468 " stroke="#9b4a08" stroke-width="4" stroke-opacity="1" stroke-miterlimit="4"/></g></svg>